<svg xmlns="http://www.w3.org/2000/svg" viewBox="0 0 48 48" id="payment"><circle cx="19" cy="23.996" r="12" fill="#f2d26c"></circle><circle cx="19" cy="23.996" r="8" fill="#f8e391"></circle><path fill="#444a54" d="M19 10.996c-7.168 0-13 5.832-13 13s5.832 13 13 13 13-5.832 13-13-5.832-13-13-13zm0 24c-6.065 0-11-4.935-11-11s4.935-11 11-11 11 4.935 11 11-4.935 11-11 11z"></path><path fill="#444a54" d="M18.898 19.011c.036.004.067.021.103.021.036 0 .067-.017.103-.021A1.997 1.997 0 0 1 21 21.001a1 1 0 1 0 2 0c0-1.859-1.279-3.411-2.999-3.858L20 16.001a1 1 0 1 0-2 0l.001 1.142C16.28 17.59 15 19.142 15 21.001c0 2.206 1.794 4 4 4 1.103 0 2 .897 2 2s-.897 2-2 2-2-.897-2-2a1 1 0 1 0-2 0c0 1.859 1.28 3.411 3 3.858l.001 1.173a1 1 0 1 0 2 0L20 30.859c1.72-.447 3-1.999 3-3.858 0-2.206-1.794-4-4-4-1.103 0-2-.897-2-2a2 2 0 0 1 1.898-1.99zm22.809-4.714-3-3a.999.999 0 0 0-1.414 0l-3 3a.999.999 0 1 0 1.414 1.414L37 14.418v17.586c0 1.654-1.346 3-3 3h-4a1 1 0 1 0 0 2h4c2.757 0 5-2.243 5-5V14.418l1.293 1.293a.997.997 0 0 0 1.414 0 .999.999 0 0 0 0-1.414z"></path></svg>